<svg width="192" height="54" viewBox="0 0 192 54" fill="none" xmlns="http://www.w3.org/2000/svg">
<g clip-path="url(#clip0_2_9)">
<g filter="url(#filter0_d_2_9)">
<path d="M21.492 22.864C21.492 24.328 21.156 25.672 20.484 26.896C19.812 28.096 18.78 29.068 17.388 29.812C15.996 30.556 14.268 30.928 12.204 30.928H8.388V40H2.232V14.728H12.204C14.22 14.728 15.924 15.076 17.316 15.772C18.708 16.468 19.752 17.428 20.448 18.652C21.144 19.876 21.492 21.28 21.492 22.864ZM11.736 26.032C12.912 26.032 13.788 25.756 14.364 25.204C14.94 24.652 15.228 23.872 15.228 22.864C15.228 21.856 14.94 21.076 14.364 20.524C13.788 19.972 12.912 19.696 11.736 19.696H8.388V26.032H11.736ZM33.8408 40.288C31.8728 40.288 30.0968 39.868 28.5128 39.028C26.9528 38.188 25.7168 36.988 24.8048 35.428C23.9168 33.868 23.4728 32.044 23.4728 29.956C23.4728 27.892 23.9288 26.08 24.8408 24.52C25.7528 22.936 27.0008 21.724 28.5848 20.884C30.1688 20.044 31.9448 19.624 33.9128 19.624C35.8808 19.624 37.6568 20.044 39.2408 20.884C40.8248 21.724 42.0728 22.936 42.9848 24.52C43.8968 26.08 44.3528 27.892 44.3528 29.956C44.3528 32.02 43.8848 33.844 42.9488 35.428C42.0368 36.988 40.7768 38.188 39.1688 39.028C37.5848 39.868 35.8088 40.288 33.8408 40.288ZM33.8408 34.96C35.0168 34.96 36.0128 34.528 36.8288 33.664C37.6688 32.8 38.0888 31.564 38.0888 29.956C38.0888 28.348 37.6808 27.112 36.8648 26.248C36.0728 25.384 35.0888 24.952 33.9128 24.952C32.7128 24.952 31.7168 25.384 30.9248 26.248C30.1328 27.088 29.7368 28.324 29.7368 29.956C29.7368 31.564 30.1208 32.8 30.8888 33.664C31.6808 34.528 32.6648 34.96 33.8408 34.96ZM53.7747 22.756C54.3747 21.82 55.2027 21.064 56.2587 20.488C57.3147 19.912 58.5507 19.624 59.9667 19.624C61.6227 19.624 63.1227 20.044 64.4667 20.884C65.8107 21.724 66.8667 22.924 67.6347 24.484C68.4267 26.044 68.8227 27.856 68.8227 29.92C68.8227 31.984 68.4267 33.808 67.6347 35.392C66.8667 36.952 65.8107 38.164 64.4667 39.028C63.1227 39.868 61.6227 40.288 59.9667 40.288C58.5747 40.288 57.3387 40 56.2587 39.424C55.2027 38.848 54.3747 38.104 53.7747 37.192V49.576H47.6187V19.912H53.7747V22.756ZM62.5587 29.92C62.5587 28.384 62.1267 27.184 61.2627 26.32C60.4227 25.432 59.3787 24.988 58.1307 24.988C56.9067 24.988 55.8627 25.432 54.9987 26.32C54.1587 27.208 53.7387 28.42 53.7387 29.956C53.7387 31.492 54.1587 32.704 54.9987 33.592C55.8627 34.48 56.9067 34.924 58.1307 34.924C59.3547 34.924 60.3987 34.48 61.2627 33.592C62.1267 32.68 62.5587 31.456 62.5587 29.92ZM84.9403 40L79.6843 30.46H78.2083V40H72.0523V14.728H82.3843C84.3763 14.728 86.0683 15.076 87.4603 15.772C88.8763 16.468 89.9323 17.428 90.6283 18.652C91.3243 19.852 91.6723 21.196 91.6723 22.684C91.6723 24.364 91.1923 25.864 90.2323 27.184C89.2963 28.504 87.9043 29.44 86.0563 29.992L91.8883 40H84.9403ZM78.2083 26.104H82.0243C83.1523 26.104 83.9923 25.828 84.5443 25.276C85.1203 24.724 85.4083 23.944 85.4083 22.936C85.4083 21.976 85.1203 21.22 84.5443 20.668C83.9923 20.116 83.1523 19.84 82.0243 19.84H78.2083V26.104ZM94.3127 29.92C94.3127 27.856 94.6967 26.044 95.4647 24.484C96.2567 22.924 97.3247 21.724 98.6687 20.884C100.013 20.044 101.513 19.624 103.169 19.624C104.585 19.624 105.821 19.912 106.877 20.488C107.957 21.064 108.785 21.82 109.361 22.756V19.912H115.517V40H109.361V37.156C108.761 38.092 107.921 38.848 106.841 39.424C105.785 40 104.549 40.288 103.133 40.288C101.501 40.288 100.013 39.868 98.6687 39.028C97.3247 38.164 96.2567 36.952 95.4647 35.392C94.6967 33.808 94.3127 31.984 94.3127 29.92ZM109.361 29.956C109.361 28.42 108.929 27.208 108.065 26.32C107.225 25.432 106.193 24.988 104.969 24.988C103.745 24.988 102.701 25.432 101.837 26.32C100.997 27.184 100.577 28.384 100.577 29.92C100.577 31.456 100.997 32.68 101.837 33.592C102.701 34.48 103.745 34.924 104.969 34.924C106.193 34.924 107.225 34.48 108.065 33.592C108.929 32.704 109.361 31.492 109.361 29.956ZM131.166 34.78V40H128.034C125.802 40 124.062 39.46 122.814 38.38C121.566 37.276 120.942 35.488 120.942 33.016V25.024H118.494V19.912H120.942V15.016H127.098V19.912H131.13V25.024H127.098V33.088C127.098 33.688 127.242 34.12 127.53 34.384C127.818 34.648 128.298 34.78 128.97 34.78H131.166ZM137.691 17.824C136.611 17.824 135.723 17.512 135.027 16.888C134.355 16.24 134.019 15.448 134.019 14.512C134.019 13.552 134.355 12.76 135.027 12.136C135.723 11.488 136.611 11.164 137.691 11.164C138.747 11.164 139.611 11.488 140.283 12.136C140.979 12.76 141.327 13.552 141.327 14.512C141.327 15.448 140.979 16.24 140.283 16.888C139.611 17.512 138.747 17.824 137.691 17.824ZM140.751 19.912V40H134.595V19.912H140.751ZM157.452 19.696C159.804 19.696 161.676 20.464 163.068 22C164.484 23.512 165.192 25.6 165.192 28.264V40H159.072V29.092C159.072 27.748 158.724 26.704 158.028 25.96C157.332 25.216 156.396 24.844 155.22 24.844C154.044 24.844 153.108 25.216 152.412 25.96C151.716 26.704 151.368 27.748 151.368 29.092V40H145.212V19.912H151.368V22.576C151.992 21.688 152.832 20.992 153.888 20.488C154.944 19.96 156.132 19.696 157.452 19.696ZM177.102 19.624C178.518 19.624 179.754 19.912 180.81 20.488C181.89 21.064 182.718 21.82 183.294 22.756V19.912H189.45V39.964C189.45 41.812 189.078 43.48 188.334 44.968C187.614 46.48 186.498 47.68 184.986 48.568C183.498 49.456 181.638 49.9 179.406 49.9C176.43 49.9 174.018 49.192 172.17 47.776C170.322 46.384 169.266 44.488 169.002 42.088H175.086C175.278 42.856 175.734 43.456 176.454 43.888C177.174 44.344 178.062 44.572 179.118 44.572C180.39 44.572 181.398 44.2 182.142 43.456C182.91 42.736 183.294 41.572 183.294 39.964V37.12C182.694 38.056 181.866 38.824 180.81 39.424C179.754 40 178.518 40.288 177.102 40.288C175.446 40.288 173.946 39.868 172.602 39.028C171.258 38.164 170.19 36.952 169.398 35.392C168.63 33.808 168.246 31.984 168.246 29.92C168.246 27.856 168.63 26.044 169.398 24.484C170.19 22.924 171.258 21.724 172.602 20.884C173.946 20.044 175.446 19.624 177.102 19.624ZM183.294 29.956C183.294 28.42 182.862 27.208 181.998 26.32C181.158 25.432 180.126 24.988 178.902 24.988C177.678 24.988 176.634 25.432 175.77 26.32C174.93 27.184 174.51 28.384 174.51 29.92C174.51 31.456 174.93 32.68 175.77 33.592C176.634 34.48 177.678 34.924 178.902 34.924C180.126 34.924 181.158 34.48 181.998 33.592C182.862 32.704 183.294 31.492 183.294 29.956Z" fill="white"/>
</g>
</g>
<defs>
<filter id="filter0_d_2_9" x="2.23199" y="11.164" width="187.218" height="42.736" filterUnits="userSpaceOnUse" color-interpolation-filters="sRGB">
<feFlood flood-opacity="0" result="BackgroundImageFix"/>
<feColorMatrix in="SourceAlpha" type="matrix" values="0 0 0 0 0 0 0 0 0 0 0 0 0 0 0 0 0 0 127 0" result="hardAlpha"/>
<feOffset dy="4"/>
<feComposite in2="hardAlpha" operator="out"/>
<feColorMatrix type="matrix" values="0 0 0 0 0.968627 0 0 0 0 0.145098 0 0 0 0 0.521569 0 0 0 1 0"/>
<feBlend mode="normal" in2="BackgroundImageFix" result="effect1_dropShadow_2_9"/>
<feBlend mode="normal" in="SourceGraphic" in2="effect1_dropShadow_2_9" result="shape"/>
</filter>
<clipPath id="clip0_2_9">
<rect width="192" height="54" fill="white"/>
</clipPath>
</defs>
</svg>
