<svg width="382" height="96" viewBox="0 0 382 96" fill="none" xmlns="http://www.w3.org/2000/svg">
<g id="Property 1=HeroAnimLgStart">
<rect id="Rectangle 2" x="374" y="62" width="8" height="8" fill="#F72283">
                                    <animate attributeName="x" values="374;0" begin="0s" dur="2s" repeatCount="1" fill="freeze" calcMode="linear" keyTimes="0;1"/>
                                    <animate attributeName="width" values="8;382" begin="0s" dur="2s" repeatCount="1" fill="freeze" calcMode="linear" keyTimes="0;1"/></rect>
<path id="Para Você" d="M39.4195 39.92C39.4195 42.6507 38.7795 45.1467 37.4995 47.408C36.2622 49.6267 34.3635 51.4187 31.8035 52.784C29.2862 54.1067 26.1928 54.768 22.5235 54.768H16.3155V70H3.7715V24.88H22.5235C26.1502 24.88 29.2222 25.52 31.7395 26.8C34.2995 28.08 36.2195 29.8507 37.4995 32.112C38.7795 34.3733 39.4195 36.976 39.4195 39.92ZM21.3075 44.784C24.8488 44.784 26.6195 43.1627 26.6195 39.92C26.6195 36.6347 24.8488 34.992 21.3075 34.992H16.3155V44.784H21.3075ZM73.003 62.64H57.003L54.571 70H41.387L57.835 24.88H72.299L88.683 70H75.435L73.003 62.64ZM69.867 53.04L65.003 38.448L60.203 53.04H69.867ZM115.62 70L106.66 53.36H105.316V70H92.7715V24.88H112.548C116.174 24.88 119.246 25.52 121.764 26.8C124.281 28.0373 126.18 29.7653 127.46 31.984C128.74 34.16 129.38 36.6133 129.38 39.344C129.38 42.416 128.526 45.1253 126.819 47.472C125.156 49.776 122.702 51.4187 119.46 52.4L129.636 70H115.62ZM105.316 44.784H111.524C113.23 44.784 114.51 44.3787 115.364 43.568C116.217 42.7573 116.644 41.584 116.644 40.048C116.644 38.5973 116.196 37.4667 115.3 36.656C114.446 35.8027 113.188 35.376 111.524 35.376H105.316V44.784ZM163.628 62.64H147.628L145.196 70H132.012L148.46 24.88H162.924L179.308 70H166.06L163.628 62.64ZM160.492 53.04L155.628 38.448L150.828 53.04H160.492ZM239.551 24.88L223.999 70H207.935L192.319 24.88H205.759L215.999 57.456L226.175 24.88H239.551ZM265.091 70.448C260.867 70.448 256.984 69.4667 253.443 67.504C249.902 65.4987 247.086 62.7467 244.995 59.248C242.947 55.7067 241.923 51.7173 241.923 47.28C241.923 42.8427 242.947 38.8747 244.995 35.376C247.086 31.8347 249.902 29.0827 253.443 27.12C256.984 25.1573 260.867 24.176 265.091 24.176C269.358 24.176 273.24 25.1573 276.739 27.12C280.28 29.0827 283.075 31.8347 285.123 35.376C287.171 38.8747 288.195 42.8427 288.195 47.28C288.195 51.7173 287.171 55.7067 285.123 59.248C283.075 62.7467 280.28 65.4987 276.739 67.504C273.198 69.4667 269.315 70.448 265.091 70.448ZM265.091 58.8C268.291 58.8 270.808 57.7547 272.643 55.664C274.52 53.5733 275.459 50.7787 275.459 47.28C275.459 43.696 274.52 40.88 272.643 38.832C270.808 36.7413 268.291 35.696 265.091 35.696C261.848 35.696 259.31 36.7413 257.475 38.832C255.64 40.88 254.723 43.696 254.723 47.28C254.723 50.8213 255.64 53.6373 257.475 55.728C259.31 57.776 261.848 58.8 265.091 58.8ZM292.298 47.344C292.298 42.9067 293.215 38.96 295.05 35.504C296.927 32.0053 299.573 29.296 302.986 27.376C306.399 25.4133 310.325 24.432 314.762 24.432C320.394 24.432 325.13 25.9467 328.97 28.976C332.81 31.9627 335.285 36.0373 336.394 41.2H322.89C322.079 39.4933 320.949 38.192 319.498 37.296C318.09 36.4 316.447 35.952 314.57 35.952C311.669 35.952 309.343 36.9973 307.594 39.088C305.887 41.136 305.034 43.888 305.034 47.344C305.034 50.8427 305.887 53.6373 307.594 55.728C309.343 57.776 311.669 58.8 314.57 58.8C316.447 58.8 318.09 58.352 319.498 57.456C320.949 56.56 322.079 55.2587 322.89 53.552H336.394C335.285 58.7147 332.81 62.8107 328.97 65.84C325.13 68.8267 320.394 70.32 314.762 70.32C310.325 70.32 306.399 69.36 302.986 67.44C299.573 65.4773 296.927 62.768 295.05 59.312C293.215 55.8133 292.298 51.824 292.298 47.344ZM354.878 34.928V42.288H369.278V51.824H354.878V59.952H371.198V70H342.334V24.88H371.198V34.928H354.878ZM356.542 17.136L346.238 22.256V13.872L356.542 8.944L366.718 13.872V22.256L356.542 17.136Z" fill="white"/>

                                    </g>
</svg>